#!OML:ASF H:\Male1\Project 1\Capture day 1\Session 1\Male1.ASF
:FULLY-SPECIFIED
:DEGREES
161
root -12.3084 12.7403 0.199321 -69.0426 84.9141 -95.1757
lowerback 35.5318 0.192707 1.87526
upperback 10.6549 2.26572 2.21048
thorax -6.01996 1.49659 0.491674
lowerneck -2.63975 2.25049 7.12702
upperneck -28.3883 1.98402 -12.3056
head -8.03121 2.02427 -5.67335
rclavicle 1.51076e-014 2.14687e-014
rhumerus -4.32367 4.18772 -81.5273
rradius 74.8353
rwrist -46.947
rhand -34.713 4.87408
rfingers 7.12502
rthumb -7.86774 -24.9595
lclavicle 1.51076e-014 2.14687e-014
lhumerus -14.2502 4.58974 86.4483
lradius 83.5473
lwrist 35.7454
lhand -42.5334 9.84065
lfingers 7.12502
lthumb -15.409 39.2464
rfemur -64.1729 2.24058 34.9249
rtibia 89.059
rfoot -29.6975 -23.7024
rtoes -30.3263
lfemur -67.0068 -0.922109 -14.2053
ltibia 91.5435
lfoot -29.1545 6.32959
ltoes -20.9007
162
root -11.9954 12.863 0.211294 -64.8572 84.1172 -90.3749
lowerback 34.3948 0.391442 2.56354
upperback 10.1581 2.62606 2.33743
thorax -6.26335 1.63389 0.126124
lowerneck -2.56217 2.28484 7.73052
upperneck -27.1625 1.88402 -13.1425
head -7.59876 1.92883 -5.99263
rclavicle 1.8487e-014 2.49475e-014
rhumerus 1.28532 7.36842 -79.3864
rradius 78.7271
rwrist -46.0221
rhand -32.781 5.28656
rfingers 7.12502
rthumb -6.00283 -24.6084
lclavicle 1.8487e-014 2.49475e-014
lhumerus -9.59665 2.8855 84.6506
lradius 91.1931
lwrist 34.0914
lhand -39.8762 14.1208
lfingers 7.12502
lthumb -12.8485 43.7054
rfemur -60.7051 2.44685 35.4769
rtibia 87.1022
rfoot -29.5946 -23.2399
rtoes -29.7005
lfemur -63.9184 -1.06514 -13.1402
ltibia 90.2731
lfoot -28.5966 6.66432
ltoes -22.1157
163
root -11.6484 13.0104 0.228709 -58.8399 84.7023 -84.1317
lowerback 32.2511 0.699728 2.1105
upperback 10.0212 2.68022 2.1942
thorax -6.22982 1.63175 0.234354
lowerneck -3.03063 2.43043 8.0571
upperneck -26.2469 2.00327 -13.7048
head -7.17006 1.95749 -6.18157
rclavicle -1.59028e-014 -1.92821e-014
rhumerus 6.90949 10.1716 -75.5852
rradius 83.9652
rwrist -46.7172
rhand -33.3965 3.42128
rfingers 7.12502
rthumb -6.59697 -26.456
lclavicle -1.59028e-014 -1.92821e-014
lhumerus -3.44253 1.21668 81.7466
lradius 97.2523
lwrist 36.4409
lhand -44.1076 10.7491
lfingers 7.12502
lthumb -16.9248 40.0316
rfemur -57.8233 2.33589 34.3005
rtibia 85.0961
rfoot -28.1383 -22.8202
rtoes -31.8382
lfemur -60.7536 -1.72054 -13.7987
ltibia 88.2795
lfoot -28.0581 7.10512
ltoes -23.773
164
root -11.2725 13.1901 0.254875 -49.6757 84.9266 -73.9041
lowerback 31.3267 1.13916 1.52795
upperback 9.56753 2.95379 2.07213
thorax -6.34545 1.73325 0.351683
lowerneck -4.07174 2.64981 8.29299
upperneck -24.3884 2.25235 -14.1352
head -6.32902 1.99213 -6.24211
rclavicle -7.43455e-014 -7.07673e-014
rhumerus 12.6594 11.356 -70.3634
rradius 88.318
rwrist -44.6985
rhand -30.4803 2.01486
rfingers 7.12502
rthumb -3.78129 -27.9313
lclavicle -7.43455e-014 -7.07673e-014
lhumerus 3.18237 0.264293 77.7409
lradius 102.901
lwrist 39.1687
lhand -40.6056 13.3472
lfingers 7.12502
lthumb -13.5515 42.8862
rfemur -53.5193 2.57583 33.1667
rtibia 82.5172
rfoot -26.854 -22.0781
rtoes -32.7504
lfemur -56.1594 -1.73249 -14.5439
ltibia 85.6897
lfoot -27.452 7.50822
ltoes -26.228
165
root -10.8422 13.3868 0.272959 -54.5083 85.0541 -77.5975
lowerback 30.3602 0.826185 2.16705
upperback 8.84535 2.65601 2.03625
thorax -6.6879 1.56051 0.0601957
lowerneck -3.84715 2.84865 8.01576
upperneck -23.3597 2.61055 -13.7987
head -6.00945 2.11283 -6.03217
rclavicle -2.26615e-014 -2.54444e-014
rhumerus 17.4801 12.1172 -64.2268
rradius 92.5497
rwrist -44.9389
rhand -28.752 0.35633
rfingers 7.12502
rthumb -2.11218 -29.613
lclavicle -2.26615e-014 -2.54444e-014
lhumerus 8.68506 0.491371 72.8524
lradius 107.989
lwrist 42.3166
lhand -40.1858 15.9504
lfingers 7.12502
lthumb -13.1469 45.516
rfemur -48.5355 1.88793 32.896
rtibia 79.3297
rfoot -25.556 -21.4779
rtoes -33.9211
lfemur -51.3774 -2.45727 -14.5313
ltibia 82.6646
lfoot -26.1779 7.65129
ltoes -27.7644
166
root -10.35 13.5926 0.304328 -52.2222 85.521 -74.3645
lowerback 28.4177 0.746319 1.76797
upperback 8.15999 2.28839 1.88984
thorax -6.55026 1.35319 0.288178
lowerneck -4.24325 3.37801 8.17342
upperneck -20.9748 3.34847 -14.0081
head -5.09242 2.35639 -6.00597
rclavicle 3.89618e-014 5.74488e-014
rhumerus 21.0026 12.5548 -57.7896
rradius 96.0796
rwrist -46.5318
rhand -26.5835 0.223625
rfingers 7.12502
rthumb -0.0178287 -29.7561
lclavicle 3.89618e-014 5.74488e-014
lhumerus 12.0803 1.4889 67.6046
lradius 112.491
lwrist 43.2642
lhand -39.9602 16.3014
lfingers 7.12502
lthumb -12.9294 45.8808
rfemur -43.5208 1.31953 32.0892
rtibia 75.6854
rfoot -23.7734 -20.8427
rtoes -34.554
lfemur -46.3346 -2.79564 -15.2106
ltibia 79.0832
lfoot -23.6339 7.51068
ltoes -26.3502
167
root -9.79441 13.8054 0.347607 -55.9388 85.519 -77.2625
lowerback 26.203 0.584089 1.99658
upperback 7.08657 1.96944 1.80606
thorax -6.65684 1.14986 0.200109
lowerneck -3.47727 3.66084 8.61045
upperneck -18.6596 3.81784 -13.9073
head -4.44713 2.45021 -5.96229
rclavicle 2.18663e-015 -2.0276e-014
rhumerus 22.2864 13.0951 -51.4037
rradius 99.0864
rwrist -48.37
rhand -26.138 -2.20605
rfingers 7.12502
rthumb 0.412418 -32.1854
lclavicle 2.18663e-015 -2.0276e-014
lhumerus 13.2734 1.53827 62.4306
lradius 115.959
lwrist 41.1063
lhand -41.2074 15.4472
lfingers 7.12502
lthumb -14.1315 44.9467
rfemur -38.2424 0.451676 32.1407
rtibia 71.4516
rfoot -21.3304 -20.3327
rtoes -34.6747
lfemur -41.2247 -2.73427 -15.0636
ltibia 75.2033
lfoot -20.9386 6.57756
ltoes -25.1884
